<svg width="256" height="231" viewBox="0 0 256 231" fill="none" xmlns="http://www.w3.org/2000/svg">
<g clip-path="url(#clip0_2_2)">
<path d="M17.1706 113.4H28.1946C28.2176 114.17 28.2506 114.951 28.2916 115.724L28.3036 115.949H34.2876L34.2726 115.698C34.1226 113.032 34.0856 110.332 34.1636 107.673L34.1706 107.427H23.1466C23.2376 104.236 23.4626 101.075 23.8166 98.0275C24.1806 94.8885 24.6946 91.7465 25.3446 88.6875C25.9946 85.6315 26.8026 82.5515 27.7476 79.5335C28.6656 76.6025 29.7456 73.6235 30.9586 70.6745L41.0296 75.1585L41.1236 74.9315C42.0876 72.5835 43.1406 70.2745 44.2546 68.0705C45.3726 65.8595 46.5896 63.6765 47.8726 61.5825C49.1576 59.4855 50.5496 57.4105 52.0116 55.4135C53.4666 53.4235 55.0456 51.4365 56.7026 49.5075L56.8626 49.3225L48.2956 42.3845C50.3706 39.9645 52.5346 37.6505 54.7316 35.5005C56.9936 33.2865 59.3706 31.1685 61.7956 29.2045C64.2236 27.2385 66.7906 25.3535 69.4246 23.6025C71.9826 21.9015 74.6956 20.2665 77.4946 18.7385L82.4996 28.5615L82.7146 28.4435C84.9446 27.2235 87.2166 26.0925 89.4666 25.0825C91.7266 24.0675 94.0456 23.1375 96.3616 22.3175C98.6766 21.4975 101.066 20.7605 103.461 20.1275C105.849 19.4955 108.326 18.9445 110.823 18.4905L111.065 18.4465L108.772 7.6625C111.908 7.0885 115.047 6.6515 118.106 6.3635C121.255 6.0675 124.435 5.9165 127.559 5.9165C130.683 5.9165 133.863 6.0675 137.012 6.3635C140.069 6.6515 143.206 7.0885 146.346 7.6625L144.054 18.4465L144.295 18.4905C146.792 18.9445 149.269 19.4955 151.657 20.1275C154.053 20.7605 156.441 21.4975 158.755 22.3175C161.069 23.1365 163.389 24.0675 165.65 25.0825C167.902 26.0935 170.173 27.2245 172.402 28.4435L172.617 28.5615L177.622 18.7385C180.42 20.2655 183.134 21.9015 185.693 23.6025C188.328 25.3535 190.894 27.2385 193.322 29.2045C195.75 31.1705 198.127 33.2885 200.387 35.5005C202.581 37.6485 204.745 39.9625 206.822 42.3845L198.255 49.3225L198.415 49.5075C200.072 51.4365 201.65 53.4235 203.106 55.4135C204.57 57.4145 205.962 59.4895 207.245 61.5825C208.528 63.6775 209.746 65.8595 210.862 68.0705C211.978 70.2765 213.031 72.5855 213.994 74.9315L214.088 75.1585L224.159 70.6745C225.372 73.6205 226.452 76.5995 227.37 79.5335C228.316 82.5535 229.124 85.6335 229.773 88.6875C230.422 91.7415 230.936 94.8835 231.301 98.0275C231.654 101.08 231.88 104.24 231.97 107.427H220.946L220.954 107.672C221.032 110.342 220.995 113.042 220.845 115.698L220.831 115.949H226.814L226.826 115.724C226.867 114.963 226.9 114.18 226.923 113.4H237.948L237.954 113.169C238.383 95.9235 234.695 78.5745 227.289 62.9955L227.189 62.7865L217.118 67.2705C214.181 61.1735 210.758 55.5865 206.659 50.2035L215.226 43.2655L215.084 43.0815C204.566 29.4085 190.782 18.2465 175.222 10.8015L175.013 10.7015L170.008 20.5245C163.893 17.6355 157.718 15.4485 151.139 13.8425L153.432 3.0585L153.206 3.0045C136.427 -1.0015 118.691 -1.0015 101.912 3.0045L101.687 3.0585L103.978 13.8425C97.4096 15.4455 91.2356 17.6315 85.1096 20.5235L80.1046 10.7015L79.8956 10.8015C64.3346 18.2475 50.5496 29.4095 40.0326 43.0815L39.8906 43.2655L48.4586 50.2035C44.3586 55.5875 40.9356 61.1745 38.0006 67.2705L27.9286 62.7865L27.8286 62.9955C20.4216 78.5765 16.7336 95.9255 17.1646 113.169L17.1706 113.4Z" fill="#005475"/>
<path d="M204.283 115.694L204.264 115.948H210.253L210.268 115.726C210.382 113.962 210.439 112.174 210.439 110.414C210.439 64.7144 173.259 27.5344 127.559 27.5344C81.8585 27.5344 44.6815 64.7124 44.6795 110.414C44.6795 112.184 44.7365 113.971 44.8495 115.726L44.8645 115.948H50.8525L50.8345 115.694C50.7145 113.945 50.6535 112.17 50.6535 110.408C50.6535 105.191 51.1795 99.9784 52.2165 94.9144C53.2255 89.9774 54.7335 85.1204 56.6975 80.4784C58.6245 75.9214 61.0105 71.5264 63.7875 67.4154C66.5385 63.3424 69.6985 59.5134 73.1785 56.0334C76.6585 52.5534 80.4885 49.3934 84.5605 46.6424C88.6725 43.8644 93.0675 41.4794 97.6235 39.5514C102.265 37.5894 107.122 36.0814 112.06 35.0704C122.194 32.9974 132.926 32.9974 143.059 35.0704C147.997 36.0814 152.854 37.5894 157.495 39.5514C162.051 41.4794 166.446 43.8644 170.557 46.6424C174.628 49.3924 178.457 52.5524 181.939 56.0334C185.419 59.5134 188.58 63.3424 191.331 67.4154C194.109 71.5264 196.494 75.9214 198.421 80.4784C200.385 85.1194 201.891 89.9764 202.902 94.9144C203.938 99.9794 204.464 105.192 204.464 110.414V110.42C204.464 112.172 204.404 113.946 204.283 115.694Z" fill="#005475"/>
<path d="M147.184 169.421C147.44 169.757 147.74 170.045 148.076 170.278C148.392 170.498 148.718 170.651 149.099 170.762C149.498 170.877 149.927 170.935 150.375 170.935C150.806 170.935 151.222 170.879 151.611 170.768C151.987 170.662 152.309 170.513 152.626 170.299C152.962 170.072 153.266 169.79 153.53 169.461C153.765 169.166 153.969 168.82 154.135 168.43C154.323 167.989 154.462 167.503 154.56 166.944C154.668 166.326 154.723 165.633 154.723 164.884C154.723 164.251 154.67 163.655 154.565 163.11C154.47 162.611 154.335 162.166 154.152 161.752C153.988 161.378 153.788 161.036 153.557 160.734V160.733C153.299 160.395 152.997 160.105 152.66 159.871C152.342 159.65 152.016 159.496 151.637 159.385C151.241 159.269 150.816 159.211 150.375 159.211C149.943 159.211 149.527 159.268 149.138 159.378C148.761 159.486 148.436 159.636 148.119 159.851C147.782 160.079 147.476 160.362 147.212 160.692L147.211 160.693C146.977 160.985 146.774 161.327 146.606 161.71C146.42 162.136 146.283 162.602 146.186 163.136C146.08 163.719 146.027 164.371 146.027 165.073C146.027 165.757 146.079 166.395 146.182 166.969C146.276 167.495 146.41 167.959 146.592 168.388C146.754 168.772 146.953 169.12 147.184 169.421ZM147.765 165.081V165.076C147.765 164.367 147.816 163.731 147.917 163.186C148.008 162.692 148.136 162.283 148.309 161.935C148.461 161.63 148.646 161.374 148.859 161.174C149.059 160.987 149.27 160.857 149.525 160.765C149.782 160.671 150.066 160.623 150.369 160.622H150.381C150.649 160.623 150.905 160.663 151.143 160.743C151.377 160.821 151.575 160.933 151.766 161.093C151.972 161.266 152.154 161.481 152.307 161.734L152.31 161.738L152.313 161.743C152.448 161.967 152.565 162.226 152.661 162.512C152.765 162.826 152.843 163.166 152.897 163.553C152.954 163.965 152.984 164.422 152.984 164.91V164.92C152.983 165.655 152.932 166.315 152.83 166.882C152.739 167.392 152.609 167.815 152.433 168.177C152.282 168.49 152.096 168.754 151.879 168.961C151.679 169.153 151.468 169.286 151.215 169.38C150.96 169.475 150.68 169.523 150.381 169.524H150.369C150.066 169.523 149.782 169.476 149.523 169.383C149.269 169.29 149.057 169.16 148.858 168.974C148.644 168.773 148.459 168.519 148.309 168.217C148.135 167.867 148.007 167.459 147.917 166.97C147.816 166.427 147.765 165.793 147.765 165.086V165.081Z" fill="#005475"/>
<path d="M102.816 161.019L102.812 161.022C102.684 161.106 102.518 161.181 102.318 161.247C102.098 161.318 101.841 161.375 101.531 161.421C101.201 161.47 100.818 161.505 100.395 161.525V162.707H103.429V170.691H105.168V159.464H103.814C103.731 159.733 103.633 159.977 103.523 160.189C103.42 160.385 103.31 160.549 103.184 160.693C103.071 160.822 102.949 160.931 102.821 161.016L102.816 161.019Z" fill="#005475"/>
<path d="M136.91 163.975C136.807 164.092 136.655 164.226 136.47 164.362C136.264 164.513 136.012 164.671 135.696 164.848C135.359 165.037 134.962 165.24 134.516 165.451L134.511 165.453C133.95 165.719 133.442 165.991 133.001 166.262C132.591 166.513 132.248 166.757 131.953 167.008C131.683 167.237 131.459 167.467 131.287 167.691C131.113 167.917 130.96 168.171 130.833 168.447C130.693 168.751 130.586 169.073 130.506 169.433C130.42 169.823 130.368 170.246 130.353 170.69H139.129V169.28H132.227V169.281L132.222 169.28H132.217V169.278H132.215L132.217 169.274V169.269C132.269 169.103 132.336 168.943 132.415 168.794C132.493 168.647 132.581 168.512 132.685 168.38C132.788 168.251 132.905 168.127 133.034 168.013L133.038 168.009L133.042 168.005C133.16 167.901 133.332 167.775 133.542 167.641C133.771 167.494 134.048 167.335 134.389 167.154C134.757 166.96 135.182 166.749 135.652 166.53L135.657 166.527C136.108 166.316 136.52 166.101 136.882 165.889C137.223 165.688 137.514 165.495 137.768 165.296C138.003 165.114 138.205 164.93 138.369 164.748C138.538 164.56 138.682 164.356 138.799 164.14C138.918 163.919 139.006 163.689 139.067 163.438C139.132 163.171 139.165 162.887 139.165 162.593C139.165 162.228 139.117 161.881 139.02 161.562C138.931 161.269 138.804 161.008 138.631 160.764C138.461 160.524 138.251 160.306 138.009 160.118C137.768 159.931 137.499 159.77 137.207 159.639C136.902 159.501 136.579 159.399 136.222 159.328C135.833 159.25 135.412 159.211 134.97 159.211C134.504 159.211 134.062 159.256 133.658 159.344C133.287 159.424 132.956 159.54 132.647 159.696C132.346 159.849 132.072 160.036 131.832 160.252C131.602 160.459 131.403 160.703 131.24 160.977C131.061 161.278 130.93 161.607 130.838 161.985C130.737 162.398 130.685 162.862 130.685 163.362H132.42C132.421 163.029 132.453 162.72 132.516 162.444C132.573 162.196 132.654 161.98 132.764 161.784C132.866 161.603 132.989 161.443 133.13 161.307L133.134 161.303L133.138 161.299C133.288 161.155 133.458 161.031 133.643 160.931C133.83 160.83 134.027 160.756 134.246 160.705C134.479 160.65 134.73 160.622 134.991 160.622H135.003C135.249 160.622 135.486 160.646 135.705 160.692C135.91 160.734 136.096 160.796 136.275 160.88C136.447 160.962 136.604 161.061 136.744 161.175H136.745L136.749 161.178L136.753 161.182C136.897 161.3 137.021 161.433 137.12 161.578C137.221 161.724 137.294 161.877 137.345 162.047C137.398 162.225 137.426 162.418 137.426 162.62V162.63C137.426 162.795 137.406 162.959 137.368 163.117C137.33 163.27 137.276 163.413 137.201 163.554C137.125 163.697 137.029 163.836 136.917 163.966L136.913 163.971L136.91 163.975Z" fill="#005475"/>
<path d="M118.127 169.421C117.911 169.358 117.724 169.267 117.555 169.142C117.379 169.014 117.235 168.859 117.115 168.671C116.979 168.461 116.875 168.211 116.804 167.929H115.064C115.123 168.359 115.228 168.749 115.376 169.088C115.509 169.394 115.677 169.656 115.89 169.89C116.088 170.108 116.313 170.287 116.578 170.439C116.856 170.597 117.162 170.714 117.513 170.797C117.907 170.889 118.346 170.936 118.819 170.936C119.301 170.936 119.764 170.872 120.194 170.746C120.604 170.626 120.954 170.457 121.295 170.216C121.656 169.961 121.979 169.643 122.254 169.273C122.5 168.943 122.713 168.565 122.89 168.15C123.084 167.689 123.229 167.192 123.331 166.631C123.443 166.018 123.5 165.342 123.5 164.623C123.5 163.956 123.444 163.339 123.335 162.789C123.237 162.292 123.098 161.859 122.91 161.465C122.742 161.115 122.538 160.806 122.304 160.545C122.044 160.256 121.744 160.007 121.414 159.807C121.093 159.612 120.752 159.47 120.372 159.371C119.962 159.265 119.521 159.211 119.062 159.211C118.604 159.211 118.169 159.259 117.769 159.353C117.401 159.438 117.073 159.562 116.765 159.729C116.462 159.895 116.188 160.097 115.951 160.331C115.715 160.563 115.511 160.823 115.345 161.103C115.175 161.39 115.05 161.691 114.963 162.024C114.869 162.382 114.821 162.768 114.821 163.17C114.821 163.571 114.869 163.951 114.962 164.297C115.049 164.616 115.171 164.9 115.337 165.165C115.495 165.419 115.688 165.65 115.912 165.853L115.913 165.854C116.147 166.066 116.413 166.25 116.701 166.399C116.989 166.547 117.292 166.656 117.626 166.731C117.987 166.812 118.376 166.853 118.784 166.853C119.26 166.853 119.707 166.793 120.11 166.675C120.485 166.566 120.795 166.415 121.087 166.198C121.387 165.976 121.646 165.7 121.856 165.379L121.857 165.375L121.859 165.376L121.86 165.374L121.864 165.376L121.869 165.377V165.378L121.871 165.379L121.868 165.383C121.773 165.955 121.662 166.476 121.539 166.931C121.426 167.347 121.306 167.693 121.171 167.991C121.051 168.257 120.916 168.487 120.782 168.655L120.778 168.66L120.775 168.664C120.621 168.856 120.443 169.019 120.249 169.149C120.061 169.276 119.869 169.364 119.646 169.427C119.417 169.491 119.171 169.524 118.915 169.524H118.903C118.62 169.524 118.359 169.489 118.127 169.421ZM121.5 163.107V163.112C121.5 163.364 121.469 163.602 121.409 163.819C121.353 164.021 121.273 164.202 121.165 164.372C121.063 164.533 120.937 164.681 120.792 164.811L120.788 164.815L120.783 164.818C120.631 164.952 120.463 165.066 120.282 165.159C120.099 165.252 119.908 165.32 119.698 165.366C119.478 165.416 119.241 165.441 118.996 165.442H118.983C118.736 165.441 118.501 165.416 118.284 165.364C118.076 165.316 117.89 165.247 117.713 165.151C117.537 165.056 117.373 164.937 117.228 164.798L117.224 164.794L117.22 164.791C117.085 164.661 116.968 164.513 116.873 164.349C116.771 164.173 116.696 163.986 116.644 163.777C116.589 163.55 116.561 163.303 116.56 163.041V163.031C116.561 162.766 116.59 162.517 116.648 162.292C116.702 162.081 116.778 161.893 116.883 161.716C116.98 161.553 117.099 161.404 117.238 161.274L117.242 161.27L117.243 161.269L117.246 161.266C117.391 161.129 117.556 161.012 117.735 160.915C117.915 160.819 118.104 160.749 118.311 160.7C118.531 160.649 118.766 160.623 119.011 160.622H119.023C119.271 160.623 119.508 160.651 119.729 160.706C119.94 160.759 120.131 160.836 120.311 160.94C120.495 161.047 120.663 161.179 120.811 161.333L120.814 161.336L120.815 161.337L120.818 161.34V161.341C120.96 161.489 121.083 161.655 121.184 161.832C121.287 162.015 121.363 162.204 121.416 162.41C121.471 162.627 121.5 162.86 121.5 163.102V163.107Z" fill="#005475"/>
<path d="M104.928 185.418V190.531H94.0764V185.418H87.3284V199.708H94.0764V194.595H104.928V199.708H111.676V185.418H104.928Z" fill="#005475"/>
<path d="M143.441 185.418V189.46H152.317V199.708H158.912V189.46H167.789V185.418H143.441Z" fill="#005475"/>
<path d="M130.949 185.418H124.168V199.708H130.949V185.418Z" fill="#005475"/>
<path d="M57.6131 127.122H55.4611V130.614H57.6131V127.122Z" fill="#005475"/>
<path d="M54.2111 127.122H52.0591V130.614H54.2111V127.122Z" fill="#005475"/>
<path d="M50.8091 127.122H48.6571V130.614H50.8091V127.122Z" fill="#005475"/>
<path d="M47.4071 127.122H45.2551V130.614H47.4071V127.122Z" fill="#005475"/>
<path d="M44.0051 127.122H41.8531V130.614H44.0051V127.122Z" fill="#005475"/>
<path d="M57.6131 131.946H55.4611V135.438H57.6131V131.946Z" fill="#005475"/>
<path d="M54.2111 131.946H52.0591V135.438H54.2111V131.946Z" fill="#005475"/>
<path d="M50.8091 131.946H48.6571V135.438H50.8091V131.946Z" fill="#005475"/>
<path d="M47.4071 131.946H45.2551V135.438H47.4071V131.946Z" fill="#005475"/>
<path d="M44.0051 131.946H41.8531V135.438H44.0051V131.946Z" fill="#005475"/>
<path d="M57.6131 136.77H55.4611V140.263H57.6131V136.77Z" fill="#005475"/>
<path d="M66.3201 128.694H64.1681V132.187H66.3201V128.694Z" fill="#005475"/>
<path d="M66.3201 133.518H64.1681V137.011H66.3201V133.518Z" fill="#005475"/>
<path d="M66.3201 138.343H64.1681V141.835H66.3201V138.343Z" fill="#005475"/>
<path d="M54.2111 136.77H52.0591V140.263H54.2111V136.77Z" fill="#005475"/>
<path d="M50.8091 136.77H48.6571V140.263H50.8091V136.77Z" fill="#005475"/>
<path d="M47.4071 136.77H45.2551V140.263H47.4071V136.77Z" fill="#005475"/>
<path d="M44.0051 136.77H41.8531V140.263H44.0051V136.77Z" fill="#005475"/>
<path d="M57.6131 141.594H55.4611V145.086H57.6131V141.594Z" fill="#005475"/>
<path d="M54.2111 141.594H52.0591V145.086H54.2111V141.594Z" fill="#005475"/>
<path d="M50.8091 141.594H48.6571V145.086H50.8091V141.594Z" fill="#005475"/>
<path d="M47.4071 141.594H45.2551V145.086H47.4071V141.594Z" fill="#005475"/>
<path d="M44.0051 141.594H41.8531V145.086H44.0051V141.594Z" fill="#005475"/>
<path d="M76.8731 120.742H74.7211V124.235H76.8731V120.742Z" fill="#005475"/>
<path d="M75.7976 114.905C75.2036 114.905 74.7216 115.386 74.7216 115.981V119.022H76.8736V115.981C76.8736 115.386 76.3916 114.905 75.7976 114.905Z" fill="#005475"/>
<path d="M76.8731 125.954H74.7211V129.447H76.8731V125.954Z" fill="#005475"/>
<path d="M76.8731 131.168H74.7211V134.66H76.8731V131.168Z" fill="#005475"/>
<path d="M76.8731 136.381H74.7211V139.873H76.8731V136.381Z" fill="#005475"/>
<path d="M76.8731 141.594H74.7211V145.086H76.8731V141.594Z" fill="#005475"/>
<path d="M80.8031 120.742H78.6511V124.235H80.8031V120.742Z" fill="#005475"/>
<path d="M79.7273 114.905C79.1333 114.905 78.6513 115.386 78.6513 115.981V119.022H80.8033V115.981C80.8033 115.386 80.3213 114.905 79.7273 114.905Z" fill="#005475"/>
<path d="M80.8031 125.954H78.6511V129.447H80.8031V125.954Z" fill="#005475"/>
<path d="M80.8031 131.168H78.6511V134.66H80.8031V131.168Z" fill="#005475"/>
<path d="M80.8031 136.381H78.6511V139.873H80.8031V136.381Z" fill="#005475"/>
<path d="M80.8031 141.594H78.6511V145.086H80.8031V141.594Z" fill="#005475"/>
<path d="M84.7331 120.742H82.5811V124.235H84.7331V120.742Z" fill="#005475"/>
<path d="M83.657 114.905C83.062 114.905 82.581 115.386 82.581 115.981V119.022H84.733V115.981C84.733 115.386 84.251 114.905 83.657 114.905Z" fill="#005475"/>
<path d="M84.7331 125.954H82.5811V129.447H84.7331V125.954Z" fill="#005475"/>
<path d="M84.7331 131.168H82.5811V134.66H84.7331V131.168Z" fill="#005475"/>
<path d="M84.7331 136.381H82.5811V139.873H84.7331V136.381Z" fill="#005475"/>
<path d="M84.7331 141.594H82.5811V145.086H84.7331V141.594Z" fill="#005475"/>
<path d="M88.6621 120.742H86.5101V124.235H88.6621V120.742Z" fill="#005475"/>
<path d="M87.5862 114.905C86.9922 114.905 86.5102 115.386 86.5102 115.981V119.022H88.6622V115.981C88.6622 115.386 88.1812 114.905 87.5862 114.905Z" fill="#005475"/>
<path d="M88.6621 125.954H86.5101V129.447H88.6621V125.954Z" fill="#005475"/>
<path d="M88.6621 131.168H86.5101V134.66H88.6621V131.168Z" fill="#005475"/>
<path d="M88.6621 136.381H86.5101V139.873H88.6621V136.381Z" fill="#005475"/>
<path d="M88.6621 141.594H86.5101V145.086H88.6621V141.594Z" fill="#005475"/>
<path d="M92.5921 120.742H90.4401V124.235H92.5921V120.742Z" fill="#005475"/>
<path d="M91.5159 114.905C90.9219 114.905 90.4399 115.386 90.4399 115.981V119.022H92.5919V115.981C92.5919 115.386 92.1099 114.905 91.5159 114.905Z" fill="#005475"/>
<path d="M92.5921 125.954H90.4401V129.447H92.5921V125.954Z" fill="#005475"/>
<path d="M92.5921 131.168H90.4401V134.66H92.5921V131.168Z" fill="#005475"/>
<path d="M92.5921 136.381H90.4401V139.873H92.5921V136.381Z" fill="#005475"/>
<path d="M92.5921 141.594H90.4401V145.086H92.5921V141.594Z" fill="#005475"/>
<path d="M96.5211 120.742H94.3691V124.235H96.5211V120.742Z" fill="#005475"/>
<path d="M95.4455 114.905C94.8515 114.905 94.3695 115.386 94.3695 115.981V119.022H96.5215V115.981C96.5215 115.386 96.0395 114.905 95.4455 114.905Z" fill="#005475"/>
<path d="M96.5211 125.954H94.3691V129.447H96.5211V125.954Z" fill="#005475"/>
<path d="M96.5211 131.168H94.3691V134.66H96.5211V131.168Z" fill="#005475"/>
<path d="M96.5211 136.381H94.3691V139.873H96.5211V136.381Z" fill="#005475"/>
<path d="M96.5211 141.594H94.3691V145.086H96.5211V141.594Z" fill="#005475"/>
<path d="M100.451 120.742H98.2991V124.235H100.451V120.742Z" fill="#005475"/>
<path d="M99.3752 114.905C98.7812 114.905 98.2992 115.386 98.2992 115.981V119.022H100.451V115.981C100.451 115.386 99.9692 114.905 99.3752 114.905Z" fill="#005475"/>
<path d="M100.451 125.954H98.2991V129.447H100.451V125.954Z" fill="#005475"/>
<path d="M100.451 131.168H98.2991V134.66H100.451V131.168Z" fill="#005475"/>
<path d="M100.451 136.381H98.2991V139.873H100.451V136.381Z" fill="#005475"/>
<path d="M100.451 141.594H98.2991V145.086H100.451V141.594Z" fill="#005475"/>
<path d="M104.381 120.742H102.229V124.235H104.381V120.742Z" fill="#005475"/>
<path d="M103.305 114.905C102.711 114.905 102.229 115.386 102.229 115.981V119.022H104.381V115.981C104.381 115.386 103.899 114.905 103.305 114.905Z" fill="#005475"/>
<path d="M104.381 125.954H102.229V129.447H104.381V125.954Z" fill="#005475"/>
<path d="M104.381 131.168H102.229V134.66H104.381V131.168Z" fill="#005475"/>
<path d="M104.381 136.381H102.229V139.873H104.381V136.381Z" fill="#005475"/>
<path d="M104.381 141.594H102.229V145.086H104.381V141.594Z" fill="#005475"/>
<path d="M108.311 120.742H106.159V124.235H108.311V120.742Z" fill="#005475"/>
<path d="M108.311 115.981C108.311 115.387 107.829 114.905 107.235 114.905C106.641 114.905 106.159 115.387 106.159 115.981V119.022H108.311V115.981Z" fill="#005475"/>
<path d="M108.311 125.955H106.159V129.448H108.311V125.955Z" fill="#005475"/>
<path d="M112.24 120.742H110.088V124.235H112.24V120.742Z" fill="#005475"/>
<path d="M112.241 115.981C112.241 115.387 111.758 114.905 111.164 114.905C110.57 114.905 110.089 115.387 110.089 115.981V119.022H112.241V115.981Z" fill="#005475"/>
<path d="M112.24 125.955H110.088V129.448H112.24V125.955Z" fill="#005475"/>
<path d="M26.3681 127.122H24.2161V130.614H26.3681V127.122Z" fill="#005475"/>
<path d="M26.3681 131.946H24.2161V135.438H26.3681V131.946Z" fill="#005475"/>
<path d="M26.3681 136.77H24.2161V140.263H26.3681V136.77Z" fill="#005475"/>
<path d="M26.3681 141.594H24.2161V145.086H26.3681V141.594Z" fill="#005475"/>
<path d="M31.0781 127.122H28.9261V130.614H31.0781V127.122Z" fill="#005475"/>
<path d="M31.0781 131.946H28.9261V135.438H31.0781V131.946Z" fill="#005475"/>
<path d="M31.0781 136.77H28.9261V140.263H31.0781V136.77Z" fill="#005475"/>
<path d="M31.0781 141.594H28.9261V145.086H31.0781V141.594Z" fill="#005475"/>
<path d="M34.4391 127.122H32.2871V130.614H34.4391V127.122Z" fill="#005475"/>
<path d="M34.4391 131.946H32.2871V135.438H34.4391V131.946Z" fill="#005475"/>
<path d="M34.4391 136.77H32.2871V140.263H34.4391V136.77Z" fill="#005475"/>
<path d="M34.4391 141.594H32.2871V145.086H34.4391V141.594Z" fill="#005475"/>
<path d="M21.5091 127.122H19.3571V130.614H21.5091V127.122Z" fill="#005475"/>
<path d="M18.1071 127.122H15.9551V130.614H18.1071V127.122Z" fill="#005475"/>
<path d="M14.7051 127.122H12.5531V130.614H14.7051V127.122Z" fill="#005475"/>
<path d="M11.3021 127.122H9.15009V130.614H11.3021V127.122Z" fill="#005475"/>
<path d="M7.90111 127.122H5.74911V130.614H7.90111V127.122Z" fill="#005475"/>
<path d="M21.5091 131.946H19.3571V135.438H21.5091V131.946Z" fill="#005475"/>
<path d="M18.1071 131.946H15.9551V135.438H18.1071V131.946Z" fill="#005475"/>
<path d="M14.7051 131.946H12.5531V135.438H14.7051V131.946Z" fill="#005475"/>
<path d="M11.3021 131.946H9.15009V135.438H11.3021V131.946Z" fill="#005475"/>
<path d="M7.90111 131.946H5.74911V135.438H7.90111V131.946Z" fill="#005475"/>
<path d="M21.5091 136.77H19.3571V140.263H21.5091V136.77Z" fill="#005475"/>
<path d="M18.1071 136.77H15.9551V140.263H18.1071V136.77Z" fill="#005475"/>
<path d="M14.7051 136.77H12.5531V140.263H14.7051V136.77Z" fill="#005475"/>
<path d="M11.3021 136.77H9.15009V140.263H11.3021V136.77Z" fill="#005475"/>
<path d="M7.90111 136.77H5.74911V140.263H7.90111V136.77Z" fill="#005475"/>
<path d="M21.5091 141.594H19.3571V145.086H21.5091V141.594Z" fill="#005475"/>
<path d="M18.1071 141.594H15.9551V145.086H18.1071V141.594Z" fill="#005475"/>
<path d="M14.7051 141.594H12.5531V145.086H14.7051V141.594Z" fill="#005475"/>
<path d="M11.3021 141.594H9.15009V145.086H11.3021V141.594Z" fill="#005475"/>
<path d="M7.90111 141.594H5.74911V145.086H7.90111V141.594Z" fill="#005475"/>
<path d="M39.1181 127.122H36.9661V130.614H39.1181V127.122Z" fill="#005475"/>
<path d="M39.1181 131.946H36.9661V135.438H39.1181V131.946Z" fill="#005475"/>
<path d="M39.1181 136.77H36.9661V140.263H39.1181V136.77Z" fill="#005475"/>
<path d="M39.1181 141.594H36.9661V145.086H39.1181V141.594Z" fill="#005475"/>
<path d="M118.613 108.373H118.628V104.881H118.613H116.476H116.461V108.373H116.476H118.613Z" fill="#005475"/>
<path d="M118.613 113.586H118.628V110.094H118.613H116.476H116.461V113.586H116.476H118.613Z" fill="#005475"/>
<path d="M118.613 118.799H118.628V115.307H118.613H116.476H116.461V118.799H116.476H118.613Z" fill="#005475"/>
<path d="M118.613 124.012H118.628V120.52H118.613H116.476H116.461V124.012H116.476H118.613Z" fill="#005475"/>
<path d="M118.613 129.225H118.628V125.732H118.613H116.476H116.461V129.225H116.476H118.613Z" fill="#005475"/>
<path d="M124.642 108.373H124.65V104.881H124.642H122.498H122.49V108.373H122.498H124.642Z" fill="#005475"/>
<path d="M124.642 113.586H124.65V110.094H124.642H122.498H122.49V113.586H122.498H124.642Z" fill="#005475"/>
<path d="M124.642 118.799H124.65V115.307H124.642H122.498H122.49V118.799H122.498H124.642Z" fill="#005475"/>
<path d="M124.642 124.012H124.65V120.52H124.642H122.498H122.49V124.012H122.498H124.642Z" fill="#005475"/>
<path d="M124.642 129.225H124.65V125.732H124.642H122.498H122.49V129.225H122.498H124.642Z" fill="#005475"/>
<path d="M125.285 83.3878H125.293V79.8958H125.285H123.141H123.133V83.3878H123.141H125.285Z" fill="#005475"/>
<path d="M125.285 97.1202H125.293V93.6282H125.285H123.141H123.133V97.1202H123.141H125.285Z" fill="#005475"/>
<path d="M125.285 88.0099H125.293V84.5179H125.285H123.141H123.133V88.0099H123.141H125.285Z" fill="#005475"/>
<path d="M121.635 75.5524H124.032V76.2784H124.401V75.5524H124.906V74.5394H123.455V74.3394L124.399 73.6044V71.3684L123.455 72.1034V71.3684H122.212L122.213 72.1034L121.269 71.3684V73.6044C121.269 73.6044 122.212 74.3394 122.213 74.3344V74.5394H120.762V75.5524H121.266V76.2784H121.635V75.5524ZM122.582 71.7374H123.086V74.5384H122.582V71.7374ZM121.131 74.9084H124.536V75.1824H121.131V74.9084Z" fill="#005475"/>
<path d="M199.656 127.122H197.504V130.614H199.656V127.122Z" fill="#005475"/>
<path d="M203.058 127.122H200.906V130.614H203.058V127.122Z" fill="#005475"/>
<path d="M206.46 127.122H204.308V130.614H206.46V127.122Z" fill="#005475"/>
<path d="M209.863 127.122H207.711V130.614H209.863V127.122Z" fill="#005475"/>
<path d="M213.265 127.122H211.113V130.614H213.265V127.122Z" fill="#005475"/>
<path d="M199.656 131.946H197.504V135.438H199.656V131.946Z" fill="#005475"/>
<path d="M203.058 131.946H200.906V135.438H203.058V131.946Z" fill="#005475"/>
<path d="M206.46 131.946H204.308V135.438H206.46V131.946Z" fill="#005475"/>
<path d="M209.863 131.946H207.711V135.438H209.863V131.946Z" fill="#005475"/>
<path d="M213.265 131.946H211.113V135.438H213.265V131.946Z" fill="#005475"/>
<path d="M199.656 136.77H197.504V140.263H199.656V136.77Z" fill="#005475"/>
<path d="M190.949 128.694H188.797V132.187H190.949V128.694Z" fill="#005475"/>
<path d="M190.949 133.518H188.797V137.011H190.949V133.518Z" fill="#005475"/>
<path d="M190.949 138.343H188.797V141.835H190.949V138.343Z" fill="#005475"/>
<path d="M203.058 136.77H200.906V140.263H203.058V136.77Z" fill="#005475"/>
<path d="M206.46 136.77H204.308V140.263H206.46V136.77Z" fill="#005475"/>
<path d="M209.863 136.77H207.711V140.263H209.863V136.77Z" fill="#005475"/>
<path d="M213.265 136.77H211.113V140.263H213.265V136.77Z" fill="#005475"/>
<path d="M199.656 141.594H197.504V145.086H199.656V141.594Z" fill="#005475"/>
<path d="M203.058 141.594H200.906V145.086H203.058V141.594Z" fill="#005475"/>
<path d="M206.46 141.594H204.308V145.086H206.46V141.594Z" fill="#005475"/>
<path d="M209.863 141.594H207.711V145.086H209.863V141.594Z" fill="#005475"/>
<path d="M213.265 141.594H211.113V145.086H213.265V141.594Z" fill="#005475"/>
<path d="M180.396 120.742H178.244V124.235H180.396V120.742Z" fill="#005475"/>
<path d="M179.32 114.905C179.914 114.905 180.396 115.386 180.396 115.981V119.022H178.244V115.981C178.244 115.386 178.726 114.905 179.32 114.905Z" fill="#005475"/>
<path d="M180.396 125.954H178.244V129.447H180.396V125.954Z" fill="#005475"/>
<path d="M180.396 131.168H178.244V134.66H180.396V131.168Z" fill="#005475"/>
<path d="M180.396 136.381H178.244V139.873H180.396V136.381Z" fill="#005475"/>
<path d="M180.396 141.594H178.244V145.086H180.396V141.594Z" fill="#005475"/>
<path d="M176.466 120.742H174.314V124.235H176.466V120.742Z" fill="#005475"/>
<path d="M175.39 114.905C175.984 114.905 176.466 115.386 176.466 115.981V119.022H174.314V115.981C174.314 115.386 174.796 114.905 175.39 114.905Z" fill="#005475"/>
<path d="M176.466 125.954H174.314V129.447H176.466V125.954Z" fill="#005475"/>
<path d="M176.466 131.168H174.314V134.66H176.466V131.168Z" fill="#005475"/>
<path d="M176.466 136.381H174.314V139.873H176.466V136.381Z" fill="#005475"/>
<path d="M176.466 141.594H174.314V145.086H176.466V141.594Z" fill="#005475"/>
<path d="M172.537 120.742H170.385V124.235H172.537V120.742Z" fill="#005475"/>
<path d="M171.461 114.905C172.055 114.905 172.537 115.386 172.537 115.981V119.022H170.385V115.981C170.385 115.386 170.867 114.905 171.461 114.905Z" fill="#005475"/>
<path d="M172.537 125.954H170.385V129.447H172.537V125.954Z" fill="#005475"/>
<path d="M172.537 131.168H170.385V134.66H172.537V131.168Z" fill="#005475"/>
<path d="M172.537 136.381H170.385V139.873H172.537V136.381Z" fill="#005475"/>
<path d="M172.537 141.594H170.385V145.086H172.537V141.594Z" fill="#005475"/>
<path d="M168.607 120.742H166.455V124.235H168.607V120.742Z" fill="#005475"/>
<path d="M167.531 114.905C168.125 114.905 168.607 115.386 168.607 115.981V119.022H166.455V115.981C166.455 115.386 166.937 114.905 167.531 114.905Z" fill="#005475"/>
<path d="M168.607 125.954H166.455V129.447H168.607V125.954Z" fill="#005475"/>
<path d="M168.607 131.168H166.455V134.66H168.607V131.168Z" fill="#005475"/>
<path d="M168.607 136.381H166.455V139.873H168.607V136.381Z" fill="#005475"/>
<path d="M168.607 141.594H166.455V145.086H168.607V141.594Z" fill="#005475"/>
<path d="M164.677 120.742H162.525V124.235H164.677V120.742Z" fill="#005475"/>
<path d="M163.601 114.905C164.196 114.905 164.677 115.386 164.677 115.981V119.022H162.525V115.981C162.525 115.386 163.007 114.905 163.601 114.905Z" fill="#005475"/>
<path d="M164.677 125.954H162.525V129.447H164.677V125.954Z" fill="#005475"/>
<path d="M164.677 131.168H162.525V134.66H164.677V131.168Z" fill="#005475"/>
<path d="M164.677 136.381H162.525V139.873H164.677V136.381Z" fill="#005475"/>
<path d="M164.677 141.594H162.525V145.086H164.677V141.594Z" fill="#005475"/>
<path d="M160.748 120.742H158.596V124.235H160.748V120.742Z" fill="#005475"/>
<path d="M159.672 114.905C160.266 114.905 160.748 115.386 160.748 115.981V119.022H158.596V115.981C158.596 115.386 159.078 114.905 159.672 114.905Z" fill="#005475"/>
<path d="M160.748 125.954H158.596V129.447H160.748V125.954Z" fill="#005475"/>
<path d="M160.748 131.168H158.596V134.66H160.748V131.168Z" fill="#005475"/>
<path d="M160.748 136.381H158.596V139.873H160.748V136.381Z" fill="#005475"/>
<path d="M160.748 141.594H158.596V145.086H160.748V141.594Z" fill="#005475"/>
<path d="M156.818 120.742H154.666V124.235H156.818V120.742Z" fill="#005475"/>
<path d="M155.742 114.905C156.336 114.905 156.818 115.386 156.818 115.981V119.022H154.666V115.981C154.666 115.386 155.148 114.905 155.742 114.905Z" fill="#005475"/>
<path d="M156.818 125.954H154.666V129.447H156.818V125.954Z" fill="#005475"/>
<path d="M156.818 131.168H154.666V134.66H156.818V131.168Z" fill="#005475"/>
<path d="M156.818 136.381H154.666V139.873H156.818V136.381Z" fill="#005475"/>
<path d="M156.818 141.594H154.666V145.086H156.818V141.594Z" fill="#005475"/>
<path d="M152.888 120.742H150.736V124.235H152.888V120.742Z" fill="#005475"/>
<path d="M151.813 114.905C152.407 114.905 152.889 115.386 152.889 115.981V119.022H150.737V115.981C150.737 115.386 151.219 114.905 151.813 114.905Z" fill="#005475"/>
<path d="M152.888 125.954H150.736V129.447H152.888V125.954Z" fill="#005475"/>
<path d="M152.888 131.168H150.736V134.66H152.888V131.168Z" fill="#005475"/>
<path d="M152.888 136.381H150.736V139.873H152.888V136.381Z" fill="#005475"/>
<path d="M152.888 141.594H150.736V145.086H152.888V141.594Z" fill="#005475"/>
<path d="M148.959 120.742H146.807V124.235H148.959V120.742Z" fill="#005475"/>
<path d="M146.807 115.981C146.807 115.387 147.289 114.905 147.883 114.905C148.477 114.905 148.959 115.387 148.959 115.981V119.022H146.807V115.981Z" fill="#005475"/>
<path d="M148.959 125.955H146.807V129.448H148.959V125.955Z" fill="#005475"/>
<path d="M145.029 120.742H142.877V124.235H145.029V120.742Z" fill="#005475"/>
<path d="M142.877 115.981C142.877 115.387 143.359 114.905 143.953 114.905C144.547 114.905 145.029 115.387 145.029 115.981V119.022H142.877V115.981Z" fill="#005475"/>
<path d="M145.029 125.955H142.877V129.448H145.029V125.955Z" fill="#005475"/>
<path d="M230.902 127.122H228.75V130.614H230.902V127.122Z" fill="#005475"/>
<path d="M230.902 131.946H228.75V135.438H230.902V131.946Z" fill="#005475"/>
<path d="M230.902 136.77H228.75V140.263H230.902V136.77Z" fill="#005475"/>
<path d="M230.902 141.594H228.75V145.086H230.902V141.594Z" fill="#005475"/>
<path d="M226.192 127.122H224.04V130.614H226.192V127.122Z" fill="#005475"/>
<path d="M226.192 131.946H224.04V135.438H226.192V131.946Z" fill="#005475"/>
<path d="M226.192 136.77H224.04V140.263H226.192V136.77Z" fill="#005475"/>
<path d="M226.192 141.594H224.04V145.086H226.192V141.594Z" fill="#005475"/>
<path d="M222.831 127.122H220.679V130.614H222.831V127.122Z" fill="#005475"/>
<path d="M222.831 131.946H220.679V135.438H222.831V131.946Z" fill="#005475"/>
<path d="M222.831 136.77H220.679V140.263H222.831V136.77Z" fill="#005475"/>
<path d="M222.831 141.594H220.679V145.086H222.831V141.594Z" fill="#005475"/>
<path d="M235.761 127.122H233.609V130.614H235.761V127.122Z" fill="#005475"/>
<path d="M239.162 127.122H237.01V130.614H239.162V127.122Z" fill="#005475"/>
<path d="M242.565 127.122H240.413V130.614H242.565V127.122Z" fill="#005475"/>
<path d="M245.967 127.122H243.815V130.614H245.967V127.122Z" fill="#005475"/>
<path d="M249.369 127.122H247.217V130.614H249.369V127.122Z" fill="#005475"/>
<path d="M235.761 131.946H233.609V135.438H235.761V131.946Z" fill="#005475"/>
<path d="M239.162 131.946H237.01V135.438H239.162V131.946Z" fill="#005475"/>
<path d="M242.565 131.946H240.413V135.438H242.565V131.946Z" fill="#005475"/>
<path d="M245.967 131.946H243.815V135.438H245.967V131.946Z" fill="#005475"/>
<path d="M249.369 131.946H247.217V135.438H249.369V131.946Z" fill="#005475"/>
<path d="M235.761 136.77H233.609V140.263H235.761V136.77Z" fill="#005475"/>
<path d="M239.162 136.77H237.01V140.263H239.162V136.77Z" fill="#005475"/>
<path d="M242.565 136.77H240.413V140.263H242.565V136.77Z" fill="#005475"/>
<path d="M245.967 136.77H243.815V140.263H245.967V136.77Z" fill="#005475"/>
<path d="M249.369 136.77H247.217V140.263H249.369V136.77Z" fill="#005475"/>
<path d="M235.761 141.594H233.609V145.086H235.761V141.594Z" fill="#005475"/>
<path d="M239.162 141.594H237.01V145.086H239.162V141.594Z" fill="#005475"/>
<path d="M242.565 141.594H240.413V145.086H242.565V141.594Z" fill="#005475"/>
<path d="M245.967 141.594H243.815V145.086H245.967V141.594Z" fill="#005475"/>
<path d="M249.369 141.594H247.217V145.086H249.369V141.594Z" fill="#005475"/>
<path d="M218.151 127.122H215.999V130.614H218.151V127.122Z" fill="#005475"/>
<path d="M218.151 131.946H215.999V135.438H218.151V131.946Z" fill="#005475"/>
<path d="M218.151 136.77H215.999V140.263H218.151V136.77Z" fill="#005475"/>
<path d="M218.151 141.594H215.999V145.086H218.151V141.594Z" fill="#005475"/>
<path d="M136.505 108.373H136.49V104.881H136.505H138.642H138.657V108.373H138.642H136.505Z" fill="#005475"/>
<path d="M136.505 113.586H136.49V110.094H136.505H138.642H138.657V113.586H138.642H136.505Z" fill="#005475"/>
<path d="M136.505 118.799H136.49V115.307H136.505H138.642H138.657V118.799H138.642H136.505Z" fill="#005475"/>
<path d="M136.505 124.012H136.49V120.52H136.505H138.642H138.657V124.012H138.642H136.505Z" fill="#005475"/>
<path d="M136.505 129.225H136.49V125.732H136.505H138.642H138.657V129.225H138.642H136.505Z" fill="#005475"/>
<path d="M128.631 104.881H126.487H126.479V108.373H126.487H128.631H128.639V104.881H128.631Z" fill="#005475"/>
<path d="M128.631 110.094H126.487H126.479V113.586H126.487H128.631H128.639V110.094H128.631Z" fill="#005475"/>
<path d="M128.631 115.307H126.487H126.479V118.799H126.487H128.631H128.639V115.307H128.631Z" fill="#005475"/>
<path d="M128.631 120.52H126.487H126.479V124.012H126.487H128.631H128.639V120.52H128.631Z" fill="#005475"/>
<path d="M128.631 125.732H126.487H126.479V129.225H126.487H128.631H128.639V125.732H128.631Z" fill="#005475"/>
<path d="M130.476 108.373H130.468V104.881H130.476H132.62H132.628V108.373H132.62H130.476Z" fill="#005475"/>
<path d="M130.476 113.586H130.468V110.094H130.476H132.62H132.628V113.586H132.62H130.476Z" fill="#005475"/>
<path d="M130.476 118.799H130.468V115.307H130.476H132.62H132.628V118.799H132.62H130.476Z" fill="#005475"/>
<path d="M130.476 124.012H130.468V120.52H130.476H132.62H132.628V124.012H132.62H130.476Z" fill="#005475"/>
<path d="M130.476 129.225H130.468V125.732H130.476H132.62H132.628V129.225H132.62H130.476Z" fill="#005475"/>
<path d="M137.835 132.512H117.282V135.515H137.835V132.512ZM137.465 135.146H117.652V132.881H137.465V135.146Z" fill="#005475"/>
<path d="M128.631 79.8956H126.487H126.479V83.3876H126.487H128.631H128.639V79.8956H128.631Z" fill="#005475"/>
<path d="M129.833 83.3878H129.825V79.8958H129.833H131.977H131.985V83.3878H131.977H129.833Z" fill="#005475"/>
<path d="M128.631 93.628H126.487H126.479V97.12H126.487H128.631H128.639V93.628H128.631Z" fill="#005475"/>
<path d="M129.833 97.1202H129.825V93.6282H129.833H131.977H131.985V97.1202H131.977H129.833Z" fill="#005475"/>
<path d="M128.631 84.5177H126.487H126.479V88.0097H126.487H128.631H128.639V84.5177H128.631Z" fill="#005475"/>
<path d="M129.833 88.0099H129.825V84.5179H129.833H131.977H131.985V88.0099H131.977H129.833Z" fill="#005475"/>
<path d="M133.482 76.2784H133.852V75.5524H134.356V74.5394H132.905V74.3344C132.905 74.3394 133.849 73.6044 133.849 73.6044V71.3684L132.905 72.1034V71.3684H131.662V72.1034L130.719 71.3684V73.6044L131.662 74.3394V74.5394H130.212V75.5524H130.715V76.2784H131.085V75.5524H133.482V76.2784ZM132.535 74.5394H132.032V71.7384H132.535V74.5394ZM130.581 74.9084H133.986V75.1824H130.581V74.9084Z" fill="#005475"/>
<path d="M126.717 46.5943L126.72 46.5953V46.5963L126.721 46.5973L126.719 46.5993L126.201 48.1933L127.556 47.2083L127.558 47.2053L127.559 47.2063L127.56 47.2053L127.562 47.2083L128.917 48.1933L128.4 46.5993L128.398 46.5973L128.399 46.5963L128.398 46.5953L128.402 46.5943L129.757 45.6103H128.081L128.078 45.6113V45.6103H128.077V45.6063L127.559 44.0143L127.042 45.6063V45.6103H127.041L127.04 45.6113L127.037 45.6103H125.362L126.717 46.5943Z" fill="#005475"/>
<path d="M246.042 122.016C246.042 122.016 245.121 121.827 244.173 121.824C243.226 121.82 235.05 121.824 235.05 121.824C235.05 121.824 234.448 121.832 233.553 121.539C232.658 121.246 223.597 118.236 223.597 118.236C223.597 118.236 214.535 121.246 213.64 121.539C212.745 121.832 212.144 121.824 212.144 121.824C212.144 121.824 203.968 121.82 203.02 121.824C202.073 121.827 201.152 122.016 201.152 122.016L192.076 123.966V124.783H192.396V125.637H186.658L186.633 114.419V114.391L188.939 112.899V111.845C188.939 111.845 182.618 110.839 178.244 110.146C173.87 109.454 171.679 109.545 171.679 109.545H140.772V102.548H141.664L142.901 101.808V100.616H140.403V99.97H141.022V98.818H137.087V92.834H137.754C137.758 92.834 137.758 91.786 137.758 91.786H137.831L139.069 91.046V89.854H138.228V89.176H138.847V88.023H136.426L137.724 86.435V84.199L136.426 85.788V84.169H135.183V85.788L133.884 84.199V86.435L135.183 88.023H133.519V78.654H134.092V77.646H134.183L135.072 77.114V76.279H129.311C129.35 76.172 129.393 76.055 129.419 75.995C129.599 75.569 129.782 75.144 129.972 74.722L129.983 74.697C130.034 74.584 130.083 74.469 130.135 74.357C130.249 74.11 130.238 73.903 130.09 73.677C129.847 73.305 129.623 72.92 129.368 72.506C129.515 72.271 129.648 72.03 129.811 71.807C129.99 71.554 129.979 71.358 129.755 71.123C129.628 70.989 129.501 70.855 129.347 70.688C129.808 70.245 129.808 69.705 129.706 69.06H128.224L127.775 49.2L128.794 48.92L128.697 48.653C128.816 48.595 128.93 48.528 129.037 48.454L129.222 48.669L129.928 47.954L129.711 47.772C129.784 47.662 129.849 47.548 129.906 47.429L130.174 47.523L130.428 46.551L130.149 46.502C130.158 46.371 130.157 46.239 130.146 46.106L130.425 46.054L130.159 45.085L129.892 45.182L129.635 45.275C129.703 45.41 129.759 45.554 129.8 45.705C130.14 46.942 129.412 48.221 128.174 48.561C127.968 48.618 127.762 48.635 127.559 48.635C127.355 48.635 127.149 48.618 126.943 48.561C125.706 48.221 124.978 46.942 125.318 45.705C125.359 45.554 125.415 45.41 125.483 45.275L125.225 45.182L124.959 45.085L124.693 46.054L124.971 46.106C124.961 46.239 124.96 46.371 124.969 46.502L124.69 46.551L124.944 47.523L125.212 47.429C125.268 47.548 125.333 47.662 125.407 47.772L125.189 47.954L125.895 48.669L126.08 48.454C126.187 48.528 126.301 48.595 126.421 48.653L126.324 48.92L127.343 49.2L126.894 69.059L125.412 69.06C125.309 69.705 125.309 70.245 125.77 70.688C125.616 70.855 125.49 70.989 125.363 71.123C125.138 71.358 125.127 71.554 125.307 71.807C125.469 72.03 125.602 72.271 125.749 72.506C125.495 72.92 125.27 73.305 125.028 73.677C124.88 73.903 124.869 74.11 124.982 74.357C125.034 74.469 125.083 74.584 125.135 74.697L125.146 74.722C125.335 75.144 125.518 75.569 125.698 75.995C125.724 76.055 125.768 76.172 125.806 76.279H120.046V77.114L120.935 77.646H121.026V78.654H121.598V88.023H119.935L121.234 86.435V84.199L119.935 85.788V84.169H118.692V85.788L117.393 84.199V86.435L118.692 88.023H116.27V89.176H116.889V89.854H116.049V91.046L117.286 91.786H117.36C117.36 91.786 117.36 92.834 117.364 92.834H118.031V98.818H114.096V99.97H114.715V100.616H112.217V101.808L113.454 102.548H114.346V109.545H83.438C83.438 109.545 81.248 109.454 76.873 110.146C72.499 110.839 66.179 111.845 66.179 111.845V112.899L68.485 114.391V114.419L68.459 125.637H62.721V124.783H63.042V123.966L53.966 122.016C53.966 122.016 53.045 121.827 52.097 121.824C51.15 121.82 42.974 121.824 42.974 121.824C42.974 121.824 42.372 121.832 41.477 121.539C40.582 121.246 31.521 118.236 31.521 118.236C31.521 118.236 22.459 121.246 21.564 121.539C20.669 121.832 20.068 121.824 20.068 121.824C20.068 121.824 11.892 121.82 10.944 121.824C9.997 121.827 9.076 122.016 9.076 122.016L0 123.966V124.783L0.53 124.784V125.975H1.22V146.656H0.53V150.489H62.859L63.909 148.472L63.973 148.349C63.494 147.971 63.184 147.386 63.184 146.729C63.184 145.591 64.11 144.666 65.247 144.666C66.385 144.666 67.31 145.591 67.31 146.729C67.31 147.425 66.963 148.041 66.433 148.415L66.463 148.472L67.513 150.489H88.811C88.22 150.737 87.588 151.053 87.241 151.617C86.962 152.072 86.924 152.713 87.326 153.111C87.684 153.465 88.194 153.553 88.677 153.482C89.134 153.415 89.667 153.226 90.015 152.919C90.925 152.116 92.021 151.525 93.147 151.085C94.391 150.6 95.679 150.225 96.974 149.903C98.29 149.576 99.613 149.288 100.952 149.074C101.169 149.039 101.385 149.005 101.601 148.974C101.763 148.949 101.926 148.926 102.089 148.904C102.094 148.903 102.101 148.903 102.107 148.902C102.846 148.802 103.588 148.721 104.331 148.66C101.872 149.402 95.803 151.513 96.775 154.006C96.785 154.032 96.798 154.056 96.809 154.081C97.385 155.331 99.627 155.274 100.441 154.485H154.677C155.49 155.274 157.733 155.331 158.308 154.081C158.32 154.056 158.332 154.032 158.343 154.006C159.315 151.513 153.245 149.402 150.786 148.66C151.53 148.721 152.271 148.802 153.01 148.902C153.017 148.903 153.023 148.903 153.029 148.904C153.192 148.926 153.354 148.949 153.516 148.974C153.733 149.005 153.949 149.039 154.165 149.074C155.505 149.288 156.827 149.576 158.144 149.903C159.438 150.225 160.726 150.6 161.97 151.085C163.097 151.525 164.193 152.116 165.103 152.919C165.45 153.226 165.984 153.415 166.441 153.482C166.924 153.553 167.433 153.465 167.792 153.111C168.194 152.713 168.156 152.072 167.877 151.617C167.53 151.053 166.898 150.737 166.307 150.489H187.605L188.655 148.472L188.685 148.415C188.155 148.041 187.807 147.425 187.807 146.729C187.807 145.591 188.733 144.666 189.87 144.666C191.008 144.666 191.933 145.591 191.933 146.729C191.933 147.386 191.624 147.971 191.144 148.349L191.208 148.472L192.259 150.489H254.588V146.656H253.897V125.975H254.588V124.784L255.118 124.783V123.966L246.042 122.016ZM98.794 154.636C98.151 154.636 97.63 154.304 97.586 153.885C97.584 153.866 97.577 153.848 97.577 153.829C97.577 153.383 98.122 153.023 98.794 153.023C99.207 153.023 99.572 153.16 99.791 153.369C99.928 153.5 100.01 153.658 100.01 153.829C100.01 154.274 99.465 154.636 98.794 154.636ZM155.326 153.369C155.546 153.16 155.91 153.023 156.324 153.023C156.996 153.023 157.54 153.383 157.54 153.829C157.54 153.848 157.533 153.866 157.531 153.885C157.488 154.304 156.967 154.636 156.324 154.636C155.653 154.636 155.108 154.274 155.108 153.829C155.108 153.658 155.19 153.5 155.326 153.369ZM140.772 112.777H188.453L186.631 113.949H140.772V112.777ZM186.267 116.306L186.336 146.656H182.503V116.306H186.267ZM182.503 115.539V114.901H186.264L186.266 115.539H182.503ZM140.772 114.318H182.133V146.656H148.357V138.235H148.956V137.267H149.359V135.723H148.357V133.474H149.265V132.15H140.772V114.318ZM114.39 137.267H117.166V137.866H114.39V137.267ZM116.571 147.31H114.986V138.235H116.571V147.31ZM117.166 148.212H114.39V147.614H117.166V148.212ZM143.189 150.12H111.928V148.572H143.189V150.12ZM122.245 137.267H125.021V137.866H122.245V137.267ZM124.426 147.31H122.841V138.235H124.426V147.31ZM125.022 148.212H122.246V147.614H125.022V148.212ZM130.096 137.267H132.872V137.866H130.096V137.267ZM132.277 147.31H130.691V138.235H132.277V147.31ZM132.872 148.212H130.096V147.614H132.872V148.212ZM137.951 137.267H140.727V137.866H137.951V137.267ZM140.132 147.31H138.547V138.235H140.132V147.31ZM140.727 148.212H137.951V147.614H140.727V148.212ZM143.189 150.489H147.118V152.137H108V150.489H143.189ZM106.128 136.676H148.989V136.898H106.128V136.676ZM106.761 133.474V135.723H105.759V137.267H106.161V138.235H106.761V146.656H72.985V114.318H114.346V132.15H105.852V133.474H106.761ZM115.522 136.307H106.128V136.092H115.522V136.307ZM107.131 133.474H115.523V135.723H107.131V133.474ZM109.311 148.212H106.535V147.614H109.311V148.212ZM107.131 138.235H108.716V147.31H107.131V138.235ZM106.535 137.267H109.311V137.866H106.535V137.267ZM140.381 102.96H114.737V102.548H140.381V102.96ZM115.084 99.97H119.194V100.616H115.084V99.97ZM118.401 98.818V92.834H121.59V100.616H119.564V99.97H120.182V98.818H118.401ZM131.977 98.169H129.824V100.616H128.639V98.169H126.479V100.616H125.293V98.169H123.133V100.616H121.968V92.834H133.15V100.616H131.985V98.169H131.977ZM135.554 99.97V100.616H133.528V92.834H136.717V98.818H134.935V99.97H135.554ZM135.924 99.97H140.033V100.616H135.924V99.97ZM147.987 135.723H139.595V133.474H147.987V135.723ZM148.989 136.307H139.595V136.092H148.989V136.307ZM115.434 130.983H139.684V131.479H115.434V130.983ZM139.226 136.307H115.892V131.849H139.226V136.307ZM120.735 103.329H134.382V130.614H120.735V103.329ZM139.595 131.849H140.053V130.614H134.76V103.329H140.381V132.15H139.595V131.849ZM120.357 103.329V130.614H115.065V131.849H115.522V132.15H114.737V103.329H120.357ZM145.806 147.614H148.582V148.212H145.806V147.614ZM147.987 147.31H146.402V138.235H147.987V147.31ZM145.806 137.267H148.582V137.866H145.806V137.267ZM148.896 133.105H139.596V132.52H148.896V133.105ZM140.652 99.601H135.304V99.188H140.652V99.601ZM135.552 84.539H136.056V88.024H135.552V84.539ZM138.478 88.807H133.131V88.393H138.478V88.807ZM137.859 89.854H133.75V89.176H137.859V89.854ZM121.968 88.023V78.654H133.15V88.023H132.761V89.176H133.38V89.854H121.738V89.176H122.357V88.023H121.968ZM129.002 76.279H128.812L129.459 74.208H129.874C129.874 74.208 129.32 75.544 129.002 76.279ZM127.256 73.906L127.398 72.814H127.719L127.862 73.906H127.256ZM127.862 74.194L127.757 76.279H127.36L127.256 74.194H127.862ZM127.196 72.353L127.103 71.942H128.015L127.922 72.353H127.196ZM126.326 72.814H126.694L126.349 73.916H125.926L126.326 72.814ZM126.219 72.353L126.121 71.94H126.473L126.576 72.353H126.219ZM126.307 74.194C126.292 74.194 126.629 75.778 126.715 76.279H126.491L125.885 74.194H126.307ZM126.499 74.194H127.009L127.196 76.279H126.881L126.499 74.194ZM127.026 73.916L126.545 73.913L126.866 72.813L127.214 72.814L127.026 73.916ZM128.251 72.813L128.572 73.913L128.092 73.916L127.904 72.814L128.251 72.813ZM128.792 72.814L129.192 73.916H128.769L128.424 72.814H128.792ZM128.541 72.353L128.645 71.94H128.996L128.899 72.353H128.541ZM128.108 74.194H128.619L128.237 76.279H127.922L128.108 74.194ZM128.811 74.194H129.233L128.627 76.279H128.403C128.489 75.778 128.825 74.194 128.811 74.194ZM129.824 73.913H129.429L128.957 72.812L129.152 72.805L129.824 73.913ZM129.016 69.457H129.322V69.761H129.016V69.457ZM129.248 70.131C129.227 70.326 128.996 70.481 128.996 70.481H126.121C126.121 70.481 125.89 70.326 125.869 70.131H129.248ZM128.531 69.457H128.838V69.761H128.531V69.457ZM128.061 69.457H128.366V69.761H128.061V69.457ZM127.287 69.456H127.831V69.761H127.287V69.456ZM126.751 69.457H127.056V69.761H126.751V69.457ZM126.28 69.457H126.587V69.761H126.28V69.457ZM125.796 69.457H126.102V69.761H125.796V69.457ZM126.467 70.785C126.83 70.792 128.287 70.792 128.651 70.785C128.99 70.784 129.21 70.913 129.378 71.274H125.74C125.908 70.913 126.127 70.784 126.467 70.785ZM125.568 71.607H129.55L129.11 72.353H128.996L129.119 71.849H128.558L128.424 72.353H128.033L128.16 71.848H126.957L127.085 72.353H126.694L126.559 71.849H125.998L126.122 72.353H126.008L125.568 71.607ZM125.966 72.805L126.16 72.812L125.689 73.913H125.294L125.966 72.805ZM125.244 74.208H125.658L126.305 76.279H126.115C125.798 75.544 125.244 74.208 125.244 74.208ZM120.443 76.648H134.674V76.777H120.443V76.648ZM121.026 77.276L120.832 77.147H134.286L134.092 77.276H121.026ZM121.43 77.646H133.688V78.285H121.43V77.646ZM119.062 84.539H119.565V88.024H119.062V84.539ZM116.64 88.393H121.987V88.807H116.64V88.393ZM121.368 89.854H117.258V89.176H121.368V89.854ZM116.44 90.224H138.678V90.636H116.44V90.224ZM116.721 91.005H138.396L137.708 91.416H117.41L116.721 91.005ZM117.733 91.786H137.384V92.464H117.733V91.786ZM114.466 99.188H119.813V99.601H114.466V99.188ZM115.522 133.105H106.222V132.52H115.522V133.105ZM66.665 112.777H114.346V113.949H68.486L66.665 112.777ZM68.852 115.539L68.853 114.901H72.615V115.539H68.852ZM72.615 116.306V146.656H68.781L68.85 116.306H72.615ZM0.9 125.606V124.784L21.454 124.809V123.824H41.588V124.809L62.352 124.784V125.606H40.548V124.928H22.778V125.606H0.9ZM61.69 146.656H59.288V125.975H61.69V146.656ZM58.918 146.656H40.548V125.975H58.918V146.656ZM40.178 146.656H35.928V125.298H40.178V146.656ZM35.559 146.656H27.806V125.298H35.559V146.656ZM27.436 146.656H23.147V125.298H27.436V146.656ZM22.778 146.656H4.485V125.975H22.778V146.656ZM4.115 146.656H1.59V125.975H4.115V146.656ZM62.635 150.12H0.9V148.571H63.441L62.635 150.12ZM63.32 148.202H0.9V147.025H62.833C62.887 147.465 63.062 147.867 63.32 148.202ZM65.247 144.296C63.93 144.296 62.858 145.349 62.819 146.656H62.059V127.014H68.456L68.411 146.656H67.676C67.636 145.349 66.564 144.296 65.247 144.296ZM89.063 152.751C88.608 153.009 88.052 152.959 87.821 152.639C87.59 152.318 87.772 151.849 88.227 151.591C88.682 151.333 89.238 151.383 89.468 151.703C89.699 152.023 89.517 152.493 89.063 152.751ZM89.824 150.12H67.737L66.931 148.571H98.486C96.85 148.731 92.674 149.209 89.824 150.12ZM67.177 148.202C67.434 147.867 67.607 147.465 67.661 147.025H106.761V147.31H106.206V148.202H67.177ZM107.665 148.571H111.559V150.12H103.117C104.352 149.395 105.947 148.824 107.665 148.571ZM102.539 150.489H107.63V152.137H100.93C101.244 151.565 101.804 151 102.539 150.489ZM104.121 154.116L100.639 154.106C100.683 153.947 100.712 153.808 100.697 153.64C100.682 153.453 100.635 153.268 100.644 153.08C100.653 152.884 100.697 152.69 100.762 152.506H104.121V154.116ZM150.627 154.116H104.49V152.507H150.627V154.116ZM154.474 153.08C154.482 153.268 154.436 153.453 154.42 153.64C154.406 153.808 154.434 153.947 154.479 154.106L150.997 154.116V152.506H154.355C154.421 152.69 154.465 152.884 154.474 153.08ZM154.188 152.137H147.488V150.489H152.579C153.314 151 153.873 151.565 154.188 152.137ZM152 150.12H143.559V148.571H147.453C149.171 148.824 150.766 149.395 152 150.12ZM166.891 151.591C167.346 151.849 167.528 152.318 167.297 152.639C167.066 152.959 166.51 153.009 166.055 152.751C165.6 152.493 165.418 152.023 165.649 151.703C165.88 151.383 166.436 151.333 166.891 151.591ZM187.381 150.12H165.293C162.444 149.209 158.267 148.731 156.632 148.571H188.187L187.381 150.12ZM187.94 148.202H148.912V147.31H148.357V147.025H187.457C187.51 147.465 187.684 147.867 187.94 148.202ZM189.87 144.296C188.554 144.296 187.481 145.349 187.442 146.656H186.706L186.661 127.014H193.058V146.656H192.299C192.26 145.349 191.187 144.296 189.87 144.296ZM254.218 150.12H192.483L191.676 148.571H254.218V150.12ZM254.218 147.025V148.202H191.798C192.055 147.867 192.231 147.465 192.285 147.025H254.218ZM193.428 125.975H195.83V146.656H193.428V125.975ZM196.199 125.975H214.569V146.656H196.199V125.975ZM214.939 125.298H219.189V146.656H214.939V125.298ZM219.559 125.298H227.312V146.656H219.559V125.298ZM227.681 125.298H231.97V146.656H227.681V125.298ZM232.34 125.975H250.633V146.656H232.34V125.975ZM251.002 125.975H253.527V146.656H251.002V125.975ZM254.218 125.606H232.34V124.928H214.57V125.606H192.766V124.784L213.53 124.809V123.824H233.664V124.809L254.218 124.784V125.606Z" fill="#005475"/>
<path d="M211.466 182.204L211.617 182.028C219.088 173.259 224.89 163.833 229.355 153.213L229.495 152.883H222.99L222.927 153.024C221.253 156.771 219.361 160.422 217.304 163.875C215.285 167.263 213.024 170.602 210.582 173.801L202.014 166.863L201.865 167.058C200.499 168.85 199.057 170.608 197.577 172.283C196.435 173.574 195.229 174.841 193.999 176.084H177.459C185.79 169.639 192.346 162.279 197.799 153.243L198.017 152.883H190.96L190.89 152.989C189.313 155.362 187.638 157.624 185.912 159.715C184.178 161.816 182.321 163.828 180.394 165.695C178.469 167.56 176.398 169.352 174.241 171.02C172.096 172.679 169.781 174.281 167.36 175.782L166.725 176.084H132.506V176.088L127.559 179.866L122.61 176.088V176.084H88.3923L87.7573 175.782C85.3363 174.281 83.0213 172.679 80.8763 171.02C78.7193 169.352 76.6483 167.56 74.7243 165.695C72.7963 163.828 70.9393 161.816 69.2053 159.715C67.4783 157.624 65.8043 155.362 64.2273 152.989L64.1573 152.883H57.1003L57.3183 153.243C62.7713 162.279 69.3273 169.639 77.6583 176.084H61.1183C59.8883 174.841 58.6823 173.574 57.5403 172.283C56.0613 170.608 54.6183 168.85 53.2523 167.058L53.1033 166.863L44.5353 173.801C42.0933 170.602 39.8323 167.263 37.8133 163.875C35.7563 160.422 33.8643 156.771 32.1893 153.024L32.1273 152.883H25.6233L25.7613 153.213C30.2273 163.833 36.0293 173.259 43.4993 182.028L43.6503 182.204L52.2183 175.266C53.2183 176.428 54.2653 177.571 55.3283 178.695L43.3683 184.054L28.3973 221.48H96.5153C94.7303 224.721 93.1483 227.594 91.4433 230.691H163.674C161.969 227.594 160.387 224.721 158.602 221.48H226.72L211.749 184.054L199.789 178.695C200.852 177.571 201.899 176.428 202.899 175.266L211.466 182.204ZM122.268 177.199L127.557 181.238L127.559 181.236L127.56 181.238L132.849 177.199L191.413 177.175L201.921 205.767H133.236C134.669 208.599 135.963 211.156 137.348 213.893H117.769C119.154 211.156 120.448 208.599 121.881 205.767H53.1963L63.7043 177.175L122.268 177.199ZM206.464 182.881L219.583 216.929H151.266C152.968 220.283 154.502 223.305 156.172 226.596H98.9453C100.615 223.305 102.149 220.283 103.852 216.929H35.5343L48.6533 182.881L53.7423 180.601L41.9753 213.062H110.91C109.291 216.176 107.973 218.709 106.494 221.553H148.623C147.144 218.709 145.826 216.176 144.207 213.062H213.142L201.375 180.601L206.464 182.881ZM200.061 180.012L211.778 212.316H142.72C144.33 215.398 145.644 217.915 147.033 220.576H108.083C109.474 217.915 110.788 215.398 112.396 212.316H43.3383L55.0563 180.012L61.3903 177.175H62.7143C59.1783 186.77 55.4173 196.987 51.8323 206.714H120.293C118.867 209.567 117.585 212.132 116.158 214.986H138.959C137.532 212.132 136.25 209.567 134.824 206.714H203.286C199.7 196.987 195.939 186.77 192.403 177.175H193.728L200.061 180.012Z" fill="#005475"/>
</g>
<defs>
<clipPath id="clip0_2_2">
<rect width="255.118" height="230.691" fill="white"/>
</clipPath>
</defs>
</svg>
